<mxfile host="app.diagrams.net" agent="Mozilla/5.0 (Macintosh; Intel Mac OS X 10_15_7) AppleWebKit/537.36 (KHTML, like Gecko) Chrome/135.0.0.0 Safari/537.36" version="26.2.14">
  <diagram name="Page-1" id="Bl6dJXkNieLRZGcEZAog">
    <mxGraphModel grid="1" page="1" gridSize="10" guides="1" tooltips="1" connect="1" arrows="1" fold="1" pageScale="1" pageWidth="850" pageHeight="1100" math="0" shadow="0">
      <root>
        <mxCell id="0" />
        <mxCell id="1" parent="0" />
        <mxCell id="lHTr5_2vijF3-sMZwv6k-1" value="" style="shape=datastore;whiteSpace=wrap;html=1;fillColor=#dae8fc;strokeColor=#6c8ebf;" vertex="1" parent="1">
          <mxGeometry x="400" y="330" width="60" height="60" as="geometry" />
        </mxCell>
        <mxCell id="lHTr5_2vijF3-sMZwv6k-2" value="" style="shape=datastore;whiteSpace=wrap;html=1;fillColor=#ffe6cc;strokeColor=#d79b00;" vertex="1" parent="1">
          <mxGeometry x="580" y="330" width="60" height="60" as="geometry" />
        </mxCell>
        <mxCell id="lHTr5_2vijF3-sMZwv6k-3" value="Clinical Data Repository (CDR)&amp;nbsp;&lt;br&gt;&lt;b&gt;Genomics&lt;/b&gt;" style="text;html=1;align=center;verticalAlign=middle;whiteSpace=wrap;rounded=0;" vertex="1" parent="1">
          <mxGeometry x="365" y="410" width="130" height="30" as="geometry" />
        </mxCell>
        <mxCell id="lHTr5_2vijF3-sMZwv6k-4" value="" style="shape=datastore;whiteSpace=wrap;html=1;fillColor=#fff2cc;strokeColor=#d6b656;" vertex="1" parent="1">
          <mxGeometry x="210" y="330" width="60" height="60" as="geometry" />
        </mxCell>
        <mxCell id="lHTr5_2vijF3-sMZwv6k-5" value="Applications &amp;amp; Databases&lt;br&gt;&lt;b&gt;(NHS Trust)&lt;/b&gt;" style="text;html=1;align=center;verticalAlign=middle;whiteSpace=wrap;rounded=0;" vertex="1" parent="1">
          <mxGeometry x="170" y="410" width="130" height="30" as="geometry" />
        </mxCell>
        <mxCell id="lHTr5_2vijF3-sMZwv6k-6" value="Forms, Templates, Questionnaires and Data Capture Screens" style="text;html=1;align=center;verticalAlign=middle;whiteSpace=wrap;rounded=0;fontStyle=1;fillColor=#fff2cc;strokeColor=#d6b656;" vertex="1" parent="1">
          <mxGeometry x="180" y="160" width="100" height="90" as="geometry" />
        </mxCell>
        <mxCell id="lHTr5_2vijF3-sMZwv6k-7" value="Datasets" style="text;html=1;align=center;verticalAlign=middle;whiteSpace=wrap;rounded=0;fontStyle=1;fillColor=#ffe6cc;strokeColor=#d79b00;" vertex="1" parent="1">
          <mxGeometry x="520" y="160" width="170" height="30" as="geometry" />
        </mxCell>
        <mxCell id="lHTr5_2vijF3-sMZwv6k-8" value="Clinical Data Warehouse (CDW)&amp;nbsp;" style="text;html=1;align=center;verticalAlign=middle;whiteSpace=wrap;rounded=0;" vertex="1" parent="1">
          <mxGeometry x="545" y="410" width="130" height="30" as="geometry" />
        </mxCell>
        <mxCell id="lHTr5_2vijF3-sMZwv6k-10" value="Domain Archetype(s)" style="text;html=1;align=center;verticalAlign=middle;whiteSpace=wrap;rounded=0;fontStyle=1;fillColor=#dae8fc;strokeColor=#6c8ebf;" vertex="1" parent="1">
          <mxGeometry x="290" y="160" width="220" height="30" as="geometry" />
        </mxCell>
        <mxCell id="lHTr5_2vijF3-sMZwv6k-11" value="Defines data sharing and exchange.&lt;div&gt;&lt;br&gt;Likely to be a mixture of LOINC Panels and openEHR CKM&lt;/div&gt;" style="text;html=1;align=center;verticalAlign=middle;whiteSpace=wrap;rounded=0;" vertex="1" parent="1">
          <mxGeometry x="290" y="200" width="220" height="50" as="geometry" />
        </mxCell>
        <mxCell id="lHTr5_2vijF3-sMZwv6k-12" value="SNOMED, LOINC and UCUM" style="text;html=1;align=center;verticalAlign=middle;whiteSpace=wrap;rounded=0;fontStyle=1;fillColor=#dae8fc;strokeColor=#6c8ebf;" vertex="1" parent="1">
          <mxGeometry x="290" y="270" width="220" height="30" as="geometry" />
        </mxCell>
        <mxCell id="lHTr5_2vijF3-sMZwv6k-13" value="ICD10, OPSC-4, etc" style="text;html=1;align=center;verticalAlign=middle;whiteSpace=wrap;rounded=0;fontStyle=1;fillColor=#ffe6cc;strokeColor=#d79b00;" vertex="1" parent="1">
          <mxGeometry x="520" y="270" width="170" height="30" as="geometry" />
        </mxCell>
        <mxCell id="lHTr5_2vijF3-sMZwv6k-14" value="local codes and other structures" style="text;html=1;align=center;verticalAlign=middle;whiteSpace=wrap;rounded=0;fontStyle=1" vertex="1" parent="1">
          <mxGeometry x="175" y="270" width="110" height="30" as="geometry" />
        </mxCell>
        <mxCell id="lHTr5_2vijF3-sMZwv6k-15" value="Operational Data" style="rounded=0;whiteSpace=wrap;html=1;fillColor=#dae8fc;strokeColor=#6c8ebf;" vertex="1" parent="1">
          <mxGeometry x="180" y="460" width="330" height="40" as="geometry" />
        </mxCell>
        <mxCell id="lHTr5_2vijF3-sMZwv6k-16" value="Analytic Data" style="rounded=0;whiteSpace=wrap;html=1;fillColor=#ffe6cc;strokeColor=#d79b00;" vertex="1" parent="1">
          <mxGeometry x="520" y="460" width="170" height="40" as="geometry" />
        </mxCell>
        <mxCell id="lHTr5_2vijF3-sMZwv6k-17" value="" style="shape=flexArrow;endArrow=classic;startArrow=classic;html=1;rounded=0;fillColor=#dae8fc;strokeColor=#6c8ebf;" edge="1" parent="1">
          <mxGeometry width="100" height="100" relative="1" as="geometry">
            <mxPoint x="290" y="359.5" as="sourcePoint" />
            <mxPoint x="380" y="359.5" as="targetPoint" />
          </mxGeometry>
        </mxCell>
        <mxCell id="KXmDhp3xJNungr4HLn-6-2" value="HL7&lt;br&gt;Events" style="edgeLabel;html=1;align=center;verticalAlign=middle;resizable=0;points=[];" connectable="0" vertex="1" parent="lHTr5_2vijF3-sMZwv6k-17">
          <mxGeometry x="-0.1111" y="1" relative="1" as="geometry">
            <mxPoint y="22" as="offset" />
          </mxGeometry>
        </mxCell>
        <mxCell id="lHTr5_2vijF3-sMZwv6k-18" value="" style="shape=flexArrow;endArrow=classic;html=1;rounded=0;fillColor=#ffe6cc;strokeColor=#d79b00;" edge="1" parent="1">
          <mxGeometry width="50" height="50" relative="1" as="geometry">
            <mxPoint x="480" y="360" as="sourcePoint" />
            <mxPoint x="570" y="360" as="targetPoint" />
          </mxGeometry>
        </mxCell>
        <mxCell id="KXmDhp3xJNungr4HLn-6-1" value="ETL" style="edgeLabel;html=1;align=center;verticalAlign=middle;resizable=0;points=[];" connectable="0" vertex="1" parent="lHTr5_2vijF3-sMZwv6k-18">
          <mxGeometry x="-0.0889" relative="1" as="geometry">
            <mxPoint x="-1" y="20" as="offset" />
          </mxGeometry>
        </mxCell>
        <mxCell id="lHTr5_2vijF3-sMZwv6k-21" value="IHE Patient Care Coordination (PCC)" style="text;html=1;align=center;verticalAlign=middle;whiteSpace=wrap;rounded=0;fontStyle=1;fillColor=#dae8fc;strokeColor=#6c8ebf;" vertex="1" parent="1">
          <mxGeometry x="290" y="40" width="220" height="40" as="geometry" />
        </mxCell>
        <mxCell id="KXmDhp3xJNungr4HLn-6-3" value="IHE Laboratory Testing Workflow (LTW)" style="text;html=1;align=center;verticalAlign=middle;whiteSpace=wrap;rounded=0;fontStyle=1;fillColor=#dae8fc;strokeColor=#6c8ebf;" vertex="1" parent="1">
          <mxGeometry x="290" y="90" width="110" height="60" as="geometry" />
        </mxCell>
        <mxCell id="KXmDhp3xJNungr4HLn-6-4" value="OHDSI / OMOP&lt;br&gt;NHS England" style="text;html=1;align=center;verticalAlign=middle;whiteSpace=wrap;rounded=0;" vertex="1" parent="1">
          <mxGeometry x="520" y="200" width="170" height="30" as="geometry" />
        </mxCell>
      </root>
    </mxGraphModel>
  </diagram>
</mxfile>
